<svg width="44" height="44" viewBox="0 0 44 44" fill="none" xmlns="http://www.w3.org/2000/svg">
<path d="M22 43.6C33.9293 43.6 43.6 33.9293 43.6 22C43.6 10.0706 33.9293 0.399994 22 0.399994C10.0706 0.399994 0.399994 10.0706 0.399994 22C0.399994 33.9293 10.0706 43.6 22 43.6Z" fill="#3F2FEE"/>
<path d="M21.5252 24.0369C19.9263 24.9288 18.4691 26.5366 17.2765 28.7004C16.9763 29.2389 16.7112 29.778 16.4818 30.3166H14.6708L9.40643 15.7165H12.8688L17.0204 27.4815L21.1719 15.7165H24.6165L23.7241 18.1894L25.6674 23.701C25.6411 23.6748 25.6144 23.648 25.5881 23.6302C24.5193 22.8181 23.1152 23.1362 21.5252 24.0369ZM27.0017 27.482C26.9486 27.314 26.8956 27.1465 26.8248 26.9964C26.6305 26.5371 26.3655 26.166 26.0033 25.8925C25.5351 25.5481 24.9965 25.4153 24.396 25.4773C23.9634 25.5214 23.5125 25.6715 23.0711 25.9276L24.6521 30.3175H29.3334L34.5978 15.7174H31.1532L27.0017 27.482Z" fill="white"/>
</svg>
