<svg width="24" height="24" viewBox="0 0 24 24" fill="none" xmlns="http://www.w3.org/2000/svg">
<path d="M13.6598 14.5737C15.1169 13.1166 17.4796 13.1166 18.9367 14.5737C20.1841 15.8211 20.3622 17.7312 19.4739 19.1695L20.7343 20.4299C21.0705 20.7662 21.0705 21.312 20.7343 21.6482C20.398 21.9845 19.8522 21.9845 19.516 21.6482L18.2556 20.3878C16.8172 21.2761 14.9072 21.098 13.6598 19.8506C12.2027 18.3935 12.2027 16.0309 13.6598 14.5737ZM17.7193 15.7911C16.9347 15.0065 15.6618 15.0065 14.8772 15.7911C14.0926 16.5757 14.0926 17.8486 14.8772 18.6332C15.6618 19.4178 16.9347 19.4178 17.7193 18.6332C18.5039 17.8486 18.5039 16.5757 17.7193 15.7911ZM8.64452 13.4806C9.12006 13.4806 9.50594 13.8665 9.50594 14.342C9.50594 14.8176 9.12006 15.2034 8.64452 15.2034H7.6878C7.21226 15.2034 6.82638 14.8176 6.82638 14.342C6.82638 13.8665 7.21226 13.4806 7.6878 13.4806H8.64452ZM10.558 9.65374C11.0335 9.65374 11.4194 10.0396 11.4194 10.5152C11.4194 10.9907 11.0335 11.3766 10.558 11.3766H7.6878C7.21226 11.3766 6.82638 10.9907 6.82638 10.5152C6.82638 10.0396 7.21226 9.65374 7.6878 9.65374H10.558ZM17.3503 10.5152V3.72284H4.72235V19.2209H10.0796C10.5551 19.2209 10.941 19.6068 10.941 20.0823C10.941 20.5579 10.5551 20.9438 10.0796 20.9438H3.86093C3.38539 20.9438 2.99951 20.5579 2.99951 20.0823V2.86142C2.99951 2.38588 3.38539 2 3.86093 2H18.2117C18.6872 2 19.0731 2.38588 19.0731 2.86142V10.5152C19.0731 10.9907 18.6872 11.3766 18.2117 11.3766C17.7362 11.3766 17.3503 10.9907 17.3503 10.5152ZM14.3848 5.82687C14.8604 5.82687 15.2462 6.21275 15.2462 6.68829C15.2462 7.16383 14.8604 7.54971 14.3848 7.54971H7.6878C7.21226 7.54971 6.82638 7.16383 6.82638 6.68829C6.82638 6.21275 7.21226 5.82687 7.6878 5.82687H14.3848Z" fill="white"/>
</svg>
