<svg width="28" height="28" viewBox="0 0 28 28" fill="none" xmlns="http://www.w3.org/2000/svg">
<path d="M6.43372 21.3334C6.43372 19.3083 8.07535 17.6667 10.1004 17.6667H13.767V21.3334C13.767 23.3584 12.1254 25 10.1004 25C8.07535 25 6.43372 23.3584 6.43372 21.3334Z" fill="#24CB71"/>
<path d="M13.7666 3V10.3333H17.4333C19.4583 10.3333 21.0999 8.69169 21.0999 6.66666C21.0999 4.64164 19.4583 3 17.4333 3H13.7666Z" fill="#FF7237"/>
<path d="M17.4028 17.6666C19.4279 17.6666 21.0695 16.025 21.0695 14C21.0695 11.9749 19.4279 10.3333 17.4028 10.3333C15.3778 10.3333 13.7362 11.9749 13.7362 14C13.7362 16.025 15.3778 17.6666 17.4028 17.6666Z" fill="#00B6FF"/>
<path d="M6.43326 6.66666C6.43326 8.69169 8.0749 10.3333 10.0999 10.3333H13.7666V3H10.0999C8.0749 3 6.43326 4.64164 6.43326 6.66666Z" fill="#FF3737"/>
<path d="M6.43372 14C6.43372 16.025 8.07535 17.6666 10.1004 17.6666H13.767V10.3333H10.1004C8.07535 10.3333 6.43372 11.975 6.43372 14Z" fill="#874FFF"/>
</svg>
